<?xml version="1.0" encoding="UTF-8"?> <!-- Generator: Adobe Illustrator 25.1.0, SVG Export Plug-In . SVG Version: 6.00 Build 0) --> <svg xmlns="http://www.w3.org/2000/svg" xmlns:xlink="http://www.w3.org/1999/xlink" version="1.1" id="Layer_1" x="0px" y="0px" viewBox="0 0 449 238" style="enable-background:new 0 0 449 238;" xml:space="preserve"> <style type="text/css"> .st0{fill:#0246BE;} </style> <g> <path class="st0" d="M78.3,90.2l-21.7,12.5V85.3L47,90.8v11.8l-13.5-7.8l-5.1,9L47,114.5v13l-24.2-13.9l-5.1,9L47,139.5v13 l-35-20.1L7,141.3v0.2l40,23v55H7v9.6h163.6v-9.6h-40.3v-55l40-23l-5.1-9l-34.9,20.1v-13l29.3-16.9l-5.1-9l-24.2,13.9v-13 l18.6-10.7l-5.1-9l-13.5,7.7V85.3l-9.6,5.5v11.8L99.1,90.2l0,0l0,0L130.7,72l-5.1-9L93.4,81.5v-13L120,53.2l-5.1-9L93.4,56.5v-13 l15.9-9.1l-5.1-9l-10.7,6.2V10.5L83.8,16v15.6l-10.7-6.2l-5.1,9l15.9,9.1v13L62.4,44.1l-5.1,9l26.6,15.3v13L51.7,62.9l-5.1,9 L78.3,90.2L78.3,90.2 M93.4,219.4v-70.7l27.3,15.7v55H93.4L93.4,219.4z M83.8,111.9l-5.6,3.2l-21.7,12.5v-13l13.7-7.9l7.1-4.1 l6.5-3.7V111.9L83.8,111.9z M83.8,136.9l-5.6,3.2l-21.7,12.5v-13l13.7-7.9l7.1-4.1l6.5-3.7V136.9L83.8,136.9z M83.8,219.4H56.6 v-54.9l27.2-15.7V219.4L83.8,219.4z M120.7,127.6L99,115.1l-5.6-3.2v-13l6.6,3.8l7.1,4.1l13.7,7.9V127.6L120.7,127.6z M120.7,139.5 v13L99,140.1l-5.6-3.2v-13l6.6,3.8l7.1,4.1L120.7,139.5L120.7,139.5z"></path> <path class="st0" d="M443.3,214.6v-2.5c0-11.7-7.5-16.6-15.9-16.6c-9.5,0-16.8,6.7-16.8,17v0.5c0,10.4,7.2,16.6,17.1,16.6 c8.9,0,14.6-3.9,15.6-11h-8.6c-0.6,2.7-2.6,4.6-6.8,4.6c-4.9,0-7.9-3.1-8.1-8.6H443.3L443.3,214.6z M434.4,209h-14.6 c0.7-4.6,3.4-7.3,7.5-7.3C431.6,201.7,434.1,204.1,434.4,209L434.4,209z M420.1,88.5c0-2,1.7-3.4,4.6-3.4c3.1,0,4.6,1.2,5.1,3.9 h8.3c-0.8-7.5-6.2-10.1-13.5-10.1c-6.7,0-12.9,3.4-12.9,10.2c0,6.4,3.4,8.9,12.1,10.2c4.7,0.7,6.6,1.6,6.6,3.9 c0,2.2-1.6,3.6-5.1,3.6c-3.9,0-5.4-1.7-5.7-4.6h-8.4c0.3,7.1,5.4,10.9,14.2,10.9c8.6,0,13.7-3.7,13.7-10.7c0-7-4.5-9.1-12.7-10.2 C421.7,91.4,420.1,90.6,420.1,88.5L420.1,88.5z M413.2,70.6v-0.9c0-3.5-2.2-5.6-5.3-5.6c-2.7,0-4.9,1.8-4.9,4.4 c0,2.7,1.7,4.3,4.6,4.4c-0.1,1.7-1.4,2.7-4.2,3v3.6C409.6,79.4,413.2,76.3,413.2,70.6L413.2,70.6z M401.5,137.2 c-9.5,0-16.8,6.7-16.8,17v0.5c0,10.4,7.2,16.6,17.1,16.6c8.9,0,14.6-3.9,15.6-11h-8.6c-0.6,2.7-2.6,4.6-6.8,4.6 c-4.9,0-7.9-3.1-8.1-8.6h23.6v-2.5C417.4,142.2,410,137.2,401.5,137.2L401.5,137.2z M408.6,150.8H394c0.7-4.6,3.4-7.3,7.5-7.3 C405.8,143.5,408.3,145.9,408.6,150.8L408.6,150.8z M390.3,112.4h9.1V91.6c0-8.7-4.6-12.6-11-12.6c-5.4,0-9,2.7-10.6,5.9v-20 l-9.1,5v42.4h9.1V93.5c0-4.8,2.9-7.2,6.8-7.2c4,0,5.7,2.1,5.7,6.6V112.4L390.3,112.4z M374.8,140.1c-2.7-1.8-6.3-2.9-10.3-2.9 c-8.6,0-14.7,4.2-14.7,11.1c0,3.5,1.7,6.4,4.5,8.3c-3.2,1.3-5.2,3.5-5.2,6.4c0,2.7,1.5,5,4.5,6c-3.8,0.5-6.5,2.9-6.5,6.2 c0,6,7.7,8.3,16.7,8.3c10.1,0,19.5-3.4,19.5-11.5c0-5.2-3.7-9.1-10.9-9.1h-13c-2.4,0-3.4-1-3.4-2.4c0-1,0.5-1.8,1.3-2.4 c2.1,0.8,4.5,1.2,7.2,1.2c8.6,0,14.7-4.2,14.7-11c0-1.8-0.5-3.5-1.4-4.9c1.7-0.6,3.8-0.9,5.6-0.9v-7.1 C379.9,135.5,376.7,137.6,374.8,140.1L374.8,140.1z M359.4,170.7h10.8c3,0,4.7,0.8,4.7,2.9c0,3.2-4.7,4.6-11.2,4.6 c-5.2,0-8.6-1.3-8.6-4.3C355.1,171.6,357,170.7,359.4,170.7L359.4,170.7z M370.2,148.4c0,3.8-2.3,5.8-5.7,5.8c-3.3,0-5.6-2-5.6-5.8 c0-3.8,2.3-5.8,5.6-5.8C368,142.6,370.2,144.6,370.2,148.4L370.2,148.4z M364.1,96.2v-0.5c0-10.8-6.2-16.7-14.2-16.7 c-4.8,0-8.6,2.7-10.4,5.9v-5.1h-9.1v43.8h9.1v-16.1c1.7,3.2,5.4,5.7,10.4,5.7C358,113.1,364.1,107,364.1,96.2L364.1,96.2z M354.9,96.3c0,6.4-2.7,9.7-7.7,9.7c-4.9,0-8.1-3.2-8.1-9.7v-0.5c0-6.6,3.2-9.9,8-9.9c4.6,0,7.8,3.2,7.8,9.9V96.3L354.9,96.3z M334.5,54.8c2.4,0,4.2-0.4,5.5-0.9v-7c-1.1,0.4-2.1,0.6-3.4,0.6c-2.3,0-3.6-1.2-3.6-3.9V27.9h6.9v-6.4h-6.9V11.2l-9,5.2v5.1h-4.2 v6.4h4.2v16.6C323.9,51.3,327.6,54.8,334.5,54.8L334.5,54.8z M307.6,54.2h9.1V33.4c0-8.7-4.6-12.6-11-12.6c-5.4,0-9,2.7-10.6,5.9 v-5.2H286v32.7h9.1V35.3c0-4.8,2.9-7.2,6.8-7.2c4,0,5.7,2.1,5.7,6.6V54.2L307.6,54.2z M288.4,89.1c-0.8-7.5-6.2-10.1-13.5-10.1 c-6.7,0-12.9,3.4-12.9,10.2c0,6.4,3.4,8.9,12.1,10.2c4.7,0.7,6.6,1.6,6.6,3.9c0,2.2-1.6,3.6-5.1,3.6c-3.9,0-5.4-1.7-5.7-4.6h-8.4 c0.3,7.1,5.4,10.9,14.2,10.9c8.6,0,13.7-3.7,13.7-10.7c0-7-4.5-9.1-12.7-10.2c-4.7-0.7-6.3-1.5-6.3-3.6c0-2,1.7-3.4,4.6-3.4 c3.1,0,4.6,1.2,5.1,3.9H288.4L288.4,89.1z M279.8,21.5h-9v32.7h9V21.5L279.8,21.5z M280.2,12.8c0-2.7-2.2-4.8-5-4.8 c-2.8,0-5,2.1-5,4.8s2.2,4.8,5,4.8C278,17.6,280.2,15.5,280.2,12.8L280.2,12.8z M255.9,54.2h8.8V32.9c0-8.9-5.7-12.1-13.7-12.1 c-8,0-14.1,3.4-14.7,11.2h8.6c0.4-2.8,2-4.6,5.6-4.6c4.1,0,5.3,2.1,5.3,6v1.3h-3.7c-10,0-17,2.9-17,10.5c0,6.9,5,9.7,10.9,9.7 c5.1,0,8-2,9.9-4.6V54.2L255.9,54.2z M255.8,42.7c0,3.6-3.1,5.8-7.1,5.8c-3.3,0-4.7-1.6-4.7-3.9c0-3.5,3.1-4.6,8.3-4.6h3.5V42.7 L255.8,42.7z M206.7,21.4c0-3,2.2-5.1,6.7-5.1c4.4,0,6.8,1.9,7.4,5.9h9.3c-0.8-8.9-6.7-13.4-16.7-13.4c-9.9,0-16.2,5.7-16.2,13.3 c0,8.6,4.7,12.1,16.1,13.6c6.6,1,8.4,2.2,8.4,5.8c0,3.5-2.9,5.9-7.4,5.9c-6.6,0-8.3-3.3-8.7-7.3h-9.7c0.6,8.9,6.2,14.7,18.4,14.7 c10.6,0,17.1-6.3,17.1-14.2c0-9.2-5.6-12.2-16.4-13.6C208.1,26,206.7,24.5,206.7,21.4L206.7,21.4z M195.9,212.4v0.5 c0,10.2,7.4,16.7,17.2,16.7c9.8,0,17.2-6.6,17.2-16.9v-0.5c0-10.2-7.4-16.7-17.2-16.7S195.9,202.2,195.9,212.4L195.9,212.4z M205.1,212.2c0-6.2,3-9.9,8-9.9c5.1,0,8,3.7,8,10v0.4c0,6.2-2.9,9.9-8,9.9c-5.1,0-8-3.7-8-10V212.2L205.1,212.2z M237.9,196.2 h-4.3v6.4h4.3v26.2h9v-26.2h7.1v-6.4h-7.1v-4c0-2.5,1.2-4.3,4.1-4.3c1.3,0,2.4,0.3,3.3,0.6v-6.8c-1.4-0.4-2.7-0.6-4.7-0.6 c-7.2,0-11.7,3.8-11.7,11.4V196.2L237.9,196.2z M223.2,95.9v0.5c0,10.2,7.4,16.7,17.2,16.7c9.8,0,17.2-6.6,17.2-16.9v-0.5 c0-10.2-7.4-16.7-17.2-16.7C230.6,79,223.2,85.7,223.2,95.9L223.2,95.9z M232.4,95.7c0-6.2,3-9.9,8-9.9c5.1,0,8,3.7,8,10v0.4 c0,6.2-2.9,9.9-8,9.9c-5.1,0-8-3.7-8-10V95.7L232.4,95.7z M218.6,125.3c-12.7,0-22.2,9.2-22.2,22.8v0.5c0,13.7,7.8,22.7,22.4,22.7 c11,0,18.9-5.7,20.1-16.7H229c-0.8,5.7-4.7,8.6-10.2,8.6c-7.4,0-11.6-5.4-11.6-14.6V148c0-9.2,4.5-14.7,11.6-14.7 c5.6,0,8.6,2.9,9.4,8.2h10.4C237.3,130.5,229.3,125.3,218.6,125.3L218.6,125.3z M208,70.6v27.2c0,5.1-2.5,7.1-6.3,7.1 c-2.6,0-4.1-0.5-5.6-1.1v7.7c1.6,0.8,3.6,1.4,7.4,1.4c9.2,0,14.7-4.9,14.7-15V64.8L208,70.6L208,70.6z M260.4,171.3 c9.8,0,17.2-6.6,17.2-16.9V154c0-10.2-7.4-16.7-17.2-16.7c-9.8,0-17.2,6.7-17.2,16.9v0.5C243.3,164.8,250.7,171.3,260.4,171.3 L260.4,171.3z M252.5,154c0-6.2,3-9.9,8-9.9c5.1,0,8,3.7,8,10v0.4c0,6.2-2.9,9.9-8,9.9c-5.1,0-8-3.7-8-10V154L252.5,154z M282.2,170.7h9v-47.2l-9,5.2V170.7L282.2,170.7z M285.4,184.2h-13.4v44.7h9.1v-31.4l12.4,31.4h3.3l12.4-31.4v31.4h10.1v-44.7 h-13.1L295.9,212L285.4,184.2L285.4,184.2z M328.9,137.2c-9.5,0-16.8,6.7-16.8,17v0.5c0,10.4,7.2,16.6,17.1,16.6 c8.9,0,14.6-3.9,15.6-11h-8.6c-0.6,2.7-2.6,4.6-6.8,4.6c-4.9,0-7.9-3.1-8.1-8.6h23.6v-2.5C344.9,142.2,337.4,137.2,328.9,137.2 L328.9,137.2z M328.9,143.5c4.3,0,6.8,2.4,7.1,7.3h-14.6C322.1,146.2,324.9,143.5,328.9,143.5L328.9,143.5z M306.5,123.5l-9,5.2v42 h9V123.5L306.5,123.5z M293.1,96.5c0,10.4,7.2,16.6,17.1,16.6c8.9,0,14.6-3.9,15.6-11h-8.6c-0.6,2.7-2.6,4.6-6.8,4.6 c-4.9,0-7.9-3.1-8.1-8.6h23.6v-2.5c0-11.7-7.5-16.6-15.9-16.6c-9.5,0-16.8,6.7-16.8,17V96.5L293.1,96.5z M302.4,92.5 c0.7-4.6,3.4-7.3,7.5-7.3c4.3,0,6.8,2.4,7.1,7.3H302.4L302.4,92.5z M324.8,219.8c0,6.9,5,9.7,10.9,9.7c5.1,0,8-2,9.9-4.6v3.9h8.8 v-21.3c0-8.9-5.7-12.1-13.7-12.1c-8,0-14.1,3.4-14.7,11.2h8.6c0.4-2.8,2-4.6,5.6-4.6c4.1,0,5.3,2.1,5.3,6v1.3h-3.7 C331.8,209.3,324.8,212.2,324.8,219.8L324.8,219.8z M333.7,219.3c0-3.5,3.1-4.6,8.3-4.6h3.5v2.8c0,3.6-3.1,5.8-7.1,5.8 C335.1,223.3,333.7,221.7,333.7,219.3L333.7,219.3z M360.1,187.4c0,2.7,2.2,4.8,5,4.8c2.9,0,5-2.1,5-4.8c0-2.7-2.2-4.8-5-4.8 C362.3,182.7,360.1,184.7,360.1,187.4L360.1,187.4z M369.5,196.2h-9v32.7h9V196.2L369.5,196.2z M384.7,196.2h-9.1v32.7h9.1V210 c0-4.8,2.9-7.2,6.8-7.2c4,0,5.7,2.1,5.7,6.6v19.5h9.1v-20.8c0-8.7-4.6-12.6-11-12.6c-5.4,0-9,2.7-10.6,5.9V196.2L384.7,196.2z"></path> </g> </svg> 